grf
version=1
nRows=19
nColumns=37
inDegrees=no
endheader
time	ground_force_1_vx	ground_force_1_vy	ground_force_1_vz	ground_force_1_px	ground_force_1_py	ground_force_1_pz	ground_moment_1_mx	ground_moment_1_my	ground_moment_1_mz	ground_force_2_vx	ground_force_2_vy	ground_force_2_vz	ground_force_2_px	ground_force_2_py	ground_force_2_pz	ground_moment_2_mx	ground_moment_2_my	ground_moment_2_mz	ground_force_3_vx	ground_force_3_vy	ground_force_3_vz	ground_force_3_px	ground_force_3_py	ground_force_3_pz	ground_moment_3_mx	ground_moment_3_my	ground_moment_3_mz	ground_force_4_vx	ground_force_4_vy	ground_force_4_vz	ground_force_4_px	ground_force_4_py	ground_force_4_pz	ground_moment_4_mx	ground_moment_4_my	ground_moment_4_mz
      3.94000000	      0.00000000	     -0.00000000	      0.00000000	      0.00000000	      0.00000000	      0.00000000	      0.00000000	      0.00000000	      0.00000000	      9.76628876	     38.54664230	   -460.54663086	   -300.71761667	  -1120.80841063	      0.00000000	      0.00000000	      0.00000000	  12071.31147110	     -8.07268499	    -40.76267553	   -427.12161255	   -267.98999605	   -647.41068095	      0.00000000	      0.00000000	     -0.00000000	 -14803.71446355	      0.00000000	     -0.00000000	      0.00000000	      0.00000000	      0.00000000	      0.00000000	      0.00000000	      0.00000000	      0.00000000
      3.95000000	      0.00000000	     -0.00000000	      0.00000000	      0.00000000	      0.00000000	      0.00000000	      0.00000000	      0.00000000	      0.00000000	      9.66319656	     37.70216370	   -462.21939087	   -300.86584000	  -1121.01874224	      0.00000000	      0.00000000	      0.00000000	  11925.18954749	     -8.33881734	    -40.64643787	   -426.59030151	   -268.09173062	   -647.57555057	      0.00000000	      0.00000000	     -0.00000000	 -15010.67186616	      0.00000000	     -0.00000000	      0.00000000	      0.00000000	      0.00000000	      0.00000000	      0.00000000	      0.00000000	      0.00000000
      3.96000000	      0.00000000	     -0.00000000	      0.00000000	      0.00000000	      0.00000000	      0.00000000	      0.00000000	      0.00000000	      0.00000000	      9.80775738	     37.91150284	   -460.64028931	   -301.29713565	  -1120.05013528	      0.00000000	      0.00000000	      0.00000000	  12181.50023412	     -7.75953835	    -40.16825799	   -427.45410156	   -268.08003990	   -646.11744047	      0.00000000	      0.00000000	     -0.00000000	 -14929.06367964	      0.00000000	     -0.00000000	      0.00000000	      0.00000000	      0.00000000	      0.00000000	      0.00000000	      0.00000000	      0.00000000
      3.97000000	      0.00000000	     -0.00000000	      0.00000000	      0.00000000	      0.00000000	      0.00000000	      0.00000000	      0.00000000	      0.00000000	      9.72394562	     38.14188385	   -460.94683838	   -300.99155049	  -1119.65741571	      0.00000000	      0.00000000	      0.00000000	  12076.74559355	     -6.76566428	    -40.20407808	   -425.19668579	   -267.79087226	   -646.67466388	      0.00000000	     -0.00000000	     -0.00000000	 -14824.00118426	      0.00000000	     -0.00000000	      0.00000000	      0.00000000	      0.00000000	      0.00000000	      0.00000000	      0.00000000	      0.00000000
      3.98000000	      0.00000000	     -0.00000000	      0.00000000	      0.00000000	      0.00000000	      0.00000000	      0.00000000	      0.00000000	      0.00000000	      9.81956387	     39.63274384	   -463.91455078	   -300.67154544	  -1120.40471552	      0.00000000	      0.00000000	      0.00000000	  12192.85679605	     -6.29846928	    -40.63427298	   -423.17175293	   -267.99911255	   -646.47301299	      0.00000000	      0.00000000	      0.00000000	 -14743.57077942	      0.00000000	     -0.00000000	      0.00000000	      0.00000000	      0.00000000	      0.00000000	      0.00000000	      0.00000000	      0.00000000
      3.99000000	      0.00000000	     -0.00000000	      0.00000000	      0.00000000	      0.00000000	      0.00000000	      0.00000000	      0.00000000	      0.00000000	      8.70824242	     40.34528351	   -465.65429688	   -301.17503827	  -1120.95279659	      0.00000000	      0.00000000	      0.00000000	  12302.33711363	     -5.66035868	    -41.06288860	   -425.17276001	   -267.99255933	   -647.13714712	      0.00000000	      0.00000000	     -0.00000000	 -14757.50256718	      0.00000000	     -0.00000000	      0.00000000	      0.00000000	      0.00000000	      0.00000000	      0.00000000	      0.00000000	      0.00000000
      4.00000000	      0.00000000	     -0.00000000	      0.00000000	      0.00000000	      0.00000000	      0.00000000	      0.00000000	      0.00000000	      0.00000000	      8.04573631	     40.47254944	   -464.10754395	   -299.90022113	  -1120.84545429	      0.00000000	      0.00000000	      0.00000000	  12283.07018369	     -5.16196319	    -40.46799424	   -427.26715088	   -268.41892455	   -646.67240334	      0.00000000	      0.00000000	     -0.00000000	 -14850.48221795	      0.00000000	     -0.00000000	      0.00000000	      0.00000000	      0.00000000	      0.00000000	      0.00000000	      0.00000000	      0.00000000
      4.01000000	      0.00000000	     -0.00000000	      0.00000000	      0.00000000	      0.00000000	      0.00000000	      0.00000000	      0.00000000	      0.00000000	      7.71279955	     40.91866684	   -463.43716431	   -299.91091714	  -1120.61325186	      0.00000000	      0.00000000	      0.00000000	  12403.36661609	     -5.90313311	    -40.41963907	   -426.47348022	   -268.20910844	   -646.59216533	      0.00000000	      0.00000000	     -0.00000000	 -14919.86157309	      0.00000000	     -0.00000000	      0.00000000	      0.00000000	      0.00000000	      0.00000000	      0.00000000	      0.00000000	      0.00000000
      4.02000000	      0.00000000	     -0.00000000	      0.00000000	      0.00000000	      0.00000000	      0.00000000	      0.00000000	      0.00000000	      0.00000000	      8.04503250	     40.93569565	   -460.64312744	   -300.27919363	  -1121.05109487	      0.00000000	      0.00000000	      0.00000000	  12337.27579155	     -7.20980280	    -40.12997373	   -424.72683716	   -267.19068499	   -646.89407218	      0.00000000	      0.00000000	     -0.00000000	 -14861.79171148	      0.00000000	     -0.00000000	      0.00000000	      0.00000000	      0.00000000	      0.00000000	      0.00000000	      0.00000000	      0.00000000
      4.03000000	      0.00000000	     -0.00000000	      0.00000000	      0.00000000	      0.00000000	      0.00000000	      0.00000000	      0.00000000	      0.00000000	      8.89657593	     40.68527985	   -457.59619141	   -300.71513805	  -1120.39708501	      0.00000000	      0.00000000	      0.00000000	  12231.90923852	     -8.20145670	    -39.95273518	   -423.32946777	   -267.03734773	   -647.12145713	      0.00000000	      0.00000000	     -0.00000000	 -14999.42933427	      0.00000000	     -0.00000000	      0.00000000	      0.00000000	      0.00000000	      0.00000000	      0.00000000	      0.00000000	      0.00000000
      4.04000000	      0.00000000	     -0.00000000	      0.00000000	      0.00000000	      0.00000000	      0.00000000	      0.00000000	      0.00000000	      0.00000000	      9.53636456	     40.63431549	   -455.22412109	   -300.78323619	  -1119.19235889	      0.00000000	      0.00000000	      0.00000000	  12239.34836049	     -8.40308534	    -39.40679095	   -422.91882324	   -267.26860928	   -646.63233761	      0.00000000	     -0.00000000	     -0.00000000	 -14961.24495877	      0.00000000	     -0.00000000	      0.00000000	      0.00000000	      0.00000000	      0.00000000	      0.00000000	      0.00000000	      0.00000000
      4.05000000	      0.00000000	     -0.00000000	      0.00000000	      0.00000000	      0.00000000	      0.00000000	      0.00000000	      0.00000000	      0.00000000	      9.73897457	     39.52885437	   -453.38513184	   -300.99557824	  -1119.53651742	      0.00000000	      0.00000000	      0.00000000	  12080.05638975	     -8.08766710	    -39.43086172	   -421.32928467	   -266.72789715	   -647.11514737	      0.00000000	     -0.00000000	     -0.00000000	 -14779.36624648	      0.00000000	     -0.00000000	      0.00000000	      0.00000000	      0.00000000	      0.00000000	      0.00000000	      0.00000000	      0.00000000
      4.06000000	      0.00000000	     -0.00000000	      0.00000000	      0.00000000	      0.00000000	      0.00000000	      0.00000000	      0.00000000	      0.00000000	      9.59521580	     38.43553162	   -452.22680664	   -300.54180289	  -1120.92623633	      0.00000000	      0.00000000	      0.00000000	  11864.75513614	     -7.65382441	    -39.05275278	   -419.38867188	   -267.20375730	   -646.75817487	      0.00000000	     -0.00000000	     -0.00000000	 -15018.79321775	      0.00000000	     -0.00000000	      0.00000000	      0.00000000	      0.00000000	      0.00000000	      0.00000000	      0.00000000	      0.00000000
      4.07000000	      0.00000000	     -0.00000000	      0.00000000	      0.00000000	      0.00000000	      0.00000000	      0.00000000	      0.00000000	      0.00000000	     10.18437004	     38.10853195	   -449.18798828	   -300.88947837	  -1119.39697501	      0.00000000	      0.00000000	      0.00000000	  12124.50262394	     -6.94423869	    -38.48356949	   -417.54415894	   -266.87234827	   -646.46058555	      0.00000000	      0.00000000	     -0.00000000	 -14982.93082613	      0.00000000	     -0.00000000	      0.00000000	      0.00000000	      0.00000000	      0.00000000	      0.00000000	      0.00000000	      0.00000000
      4.08000000	      0.00000000	     -0.00000000	      0.00000000	      0.00000000	      0.00000000	      0.00000000	      0.00000000	      0.00000000	      0.00000000	      8.76769352	     39.00007248	   -453.68148804	   -300.78055204	  -1120.21224345	      0.00000000	      0.00000000	      0.00000000	  12054.76263006	     -6.57857938	    -37.69944324	   -416.73397827	   -266.74234864	   -648.32730731	      0.00000000	      0.00000000	     -0.00000000	 -15016.85835937	      0.00000000	     -0.00000000	      0.00000000	      0.00000000	      0.00000000	      0.00000000	      0.00000000	      0.00000000	      0.00000000
      4.09000000	      0.00000000	     -0.00000000	      0.00000000	      0.00000000	      0.00000000	      0.00000000	      0.00000000	      0.00000000	      0.00000000	      8.28499413	     40.27334213	   -458.73486328	   -301.50246956	  -1118.72316014	      0.00000000	      0.00000000	      0.00000000	  12107.68637276	     -6.89650953	    -36.86649644	   -416.53790283	   -266.70363080	   -648.58104605	      0.00000000	      0.00000000	     -0.00000000	 -15080.25055574	      0.00000000	     -0.00000000	      0.00000000	      0.00000000	      0.00000000	      0.00000000	      0.00000000	      0.00000000	      0.00000000
      4.10000000	      0.00000000	     -0.00000000	      0.00000000	      0.00000000	      0.00000000	      0.00000000	      0.00000000	      0.00000000	      0.00000000	      7.83840418	     41.21675873	   -463.22381592	   -302.06225503	  -1120.31521259	      0.00000000	      0.00000000	      0.00000000	  12326.40319463	     -7.17357482	    -37.03185591	   -419.52929688	   -266.93702581	   -647.39276543	      0.00000000	     -0.00000000	     -0.00000000	 -15232.25727504	      0.00000000	     -0.00000000	      0.00000000	      0.00000000	      0.00000000	      0.00000000	      0.00000000	      0.00000000	      0.00000000
      4.11000000	      0.00000000	     -0.00000000	      0.00000000	      0.00000000	      0.00000000	      0.00000000	      0.00000000	      0.00000000	      0.00000000	      7.46877193	     42.10789490	   -464.32901001	   -302.73721958	  -1119.77651165	      0.00000000	      0.00000000	      0.00000000	  12313.94647677	     -7.40118641	    -37.57414944	   -418.38305664	   -266.38024676	   -648.40815561	      0.00000000	      0.00000000	     -0.00000000	 -15285.06648136	      0.00000000	     -0.00000000	      0.00000000	      0.00000000	      0.00000000	      0.00000000	      0.00000000	      0.00000000	      0.00000000
      4.12000000	      0.00000000	     -0.00000000	      0.00000000	      0.00000000	      0.00000000	      0.00000000	      0.00000000	      0.00000000	      0.00000000	      6.65232849	     42.22166443	   -460.29455566	   -303.58404321	  -1118.67999644	      0.00000000	      0.00000000	      0.00000000	  12093.43582656	     -7.61655523	    -38.31909495	   -419.72976685	   -266.37800086	   -648.23113731	      0.00000000	      0.00000000	     -0.00000000	 -15273.93764291	      0.00000000	     -0.00000000	      0.00000000	      0.00000000	      0.00000000	      0.00000000	      0.00000000	      0.00000000	      0.00000000
